<svg width="11" height="20" viewBox="0 0 11 20" fill="none" xmlns="http://www.w3.org/2000/svg">
<g clip-path="url(#clip0_3_6)">
<path d="M0.694677 4.46412H5.1771C5.87046 4.46412 6.04624 3.98561 5.67515 3.4485L3.48765 0.333262C3.17515 -0.106191 2.7064 -0.115957 2.38413 0.333262L0.19663 3.43873C-0.184229 3.98561 -0.00844806 4.46412 0.694677 4.46412ZM8.94663 15.802C9.49351 15.9876 9.90366 15.6458 10.0306 15.2258C10.1478 14.8254 10.0013 14.3567 9.48374 14.1809C5.59702 12.8528 3.76108 10.47 3.76108 6.8567V3.14576C3.76108 2.68678 3.38999 2.30592 2.93101 2.30592C2.47202 2.30592 2.09116 2.68678 2.09116 3.14576V6.8567C2.09116 11.2415 4.38608 14.2493 8.94663 15.802ZM3.76108 3.14576C3.76108 2.68678 3.38999 2.30592 2.93101 2.30592C2.47202 2.30592 2.09116 2.68678 2.09116 3.14576V18.302C2.09116 18.761 2.47202 19.1321 2.93101 19.1321C3.38999 19.1321 3.76108 18.761 3.76108 18.302V3.14576Z" fill="white" fill-opacity="0.85"/>
</g>
<defs>
<clipPath id="clip0_3_6">
<rect width="10.4323" height="19.1333" fill="white"/>
</clipPath>
</defs>
</svg>
